<svg width="36" height="37" viewBox="0 0 36 37" fill="none" xmlns="http://www.w3.org/2000/svg">
<g id="Social Media / Discord">
<rect id="Logo Container" y="0.94751" width="35.9895" height="35.9895" rx="7.86125" fill="#5865F2"/>
<path id="Vector" d="M24.5563 13.0436C26.677 16.1836 27.7243 19.7254 27.3328 23.8029C27.3311 23.8202 27.3222 23.836 27.3081 23.8464C25.7022 25.034 24.1463 25.7547 22.6122 26.2326C22.6003 26.2363 22.5875 26.2361 22.5756 26.2321C22.5638 26.228 22.5535 26.2204 22.5462 26.2102C22.1918 25.7135 21.8698 25.19 21.5877 24.6402C21.5715 24.6078 21.5863 24.5688 21.6196 24.556C22.131 24.362 22.6174 24.1294 23.0852 23.854C23.122 23.8322 23.1243 23.779 23.0903 23.7535C22.991 23.6793 22.8927 23.6013 22.7986 23.5233C22.781 23.5089 22.7573 23.506 22.7373 23.5157C19.7003 24.9281 16.3735 24.9281 13.3006 23.5157C13.2807 23.5067 13.257 23.5098 13.2398 23.524C13.146 23.602 13.0474 23.6793 12.949 23.7535C12.915 23.779 12.9178 23.8322 12.9549 23.854C13.4227 24.1242 13.909 24.362 14.4198 24.557C14.4528 24.5697 14.4686 24.6078 14.4521 24.6402C14.1761 25.1907 13.8541 25.7143 13.4931 26.2109C13.4774 26.231 13.4516 26.2402 13.4271 26.2326C11.9003 25.7547 10.3444 25.034 8.73851 23.8464C8.72513 23.836 8.7155 23.8195 8.7141 23.8022C8.3869 20.2753 9.05373 16.7041 11.4879 13.0429C11.4938 13.0332 11.5027 13.0256 11.5131 13.0211C12.7108 12.4675 13.994 12.0603 15.3351 11.8277C15.3595 11.8239 15.384 11.8352 15.3966 11.857C15.5623 12.1524 15.7518 12.5313 15.8799 12.841C17.2936 12.6235 18.7293 12.6235 20.1726 12.841C20.3007 12.538 20.4836 12.1524 20.6486 11.857C20.6545 11.8462 20.6636 11.8375 20.6746 11.8323C20.6857 11.827 20.6981 11.8254 20.7101 11.8277C22.0519 12.061 23.3351 12.4682 24.5319 13.0211C24.5425 13.0256 24.5512 13.0332 24.5563 13.0436ZM16.5986 19.7496C16.6134 18.7069 15.8585 17.8441 14.911 17.8441C13.9712 17.8441 13.2237 18.6993 13.2237 19.7496C13.2237 20.7995 13.986 21.6547 14.911 21.6547C15.851 21.6547 16.5986 20.7995 16.5986 19.7496ZM22.8378 19.7496C22.8525 18.7069 22.0977 17.8441 21.1504 17.8441C20.2104 17.8441 19.4628 18.6993 19.4628 19.7496C19.4628 20.7995 20.2252 21.6547 21.1504 21.6547C22.0977 21.6547 22.8378 20.7995 22.8378 19.7496Z" fill="white"/>
</g>
</svg>
