<svg id="Layer_1" data-name="Layer 1" xmlns="http://www.w3.org/2000/svg" viewBox="0 0 450.72 413.86"><defs><style>.cls-1{fill:#fff;}</style></defs><title>square</title><line x1="199.64" y1="174.33" x2="199.64" y2="215.84"/><polygon points="405.87 335.48 405.87 228.5 351.43 174.33 199.64 174.33 194.78 215.84 155.57 174.33 81.19 174.33 81.19 201.09 57.6 174.33 0 174.33 0 396.15 58.02 396.15 61.08 396.15 61.08 303 81.19 325.31 81.19 396.15 139.24 396.15 141.05 396.15 141.05 281.01 146.98 287.28 146.98 396.15 148.35 396.15 194.78 396.15 199.64 396.15 212.39 396.15 212.39 354.7 253.84 396.15 343.08 396.15 360.79 413.86 450.72 413.86 450.72 380.33 405.87 335.48"/><polyline points="399.17 221.83 405.88 221.83 405.87 228.5"/><polyline points="405.88 0 405.5 0 143.57 0 143.57 124.67 117.11 124.67 64.58 72.14 64.58 0 0.96 0 0.96 131.98 90.81 221.82 405.5 221.82 405.88 221.82 405.88 0"/><path class="cls-1" d="M619.15,958.16l60.72,60.72h46.24l35.65,35.66H665.15L583.5,972.88V894.22h35.65Zm142.61,60.72H726.11V894.22h35.65Z" transform="translate(-568.55 -880.23)"/><path class="cls-1" d="M837.94,947.81h76.59l46,46v61.65H781.81V929.87h35.66v89.93H924.88v-11.27l-25.3-25.07H837.94Zm-55.67-53.59H960.53v35.65H817.93Z" transform="translate(-568.55 -880.23)"/><path class="cls-1" d="M719.26,1074.74l42.64,45.78v114.54H729.82V1135.7l-23.59-25.3H695.67v98l-47-52.44-33.11-38v117.07H583.5V1074.74h38.91l41.18,47.39v-47.39Zm-23.59,160.32H663.59v-25.53h32.08Z" transform="translate(-568.55 -880.23)"/><path class="cls-1" d="M960.69,1227.7l25.08,25.07H935.39l-17.71-17.71H828.44l-46-46v-54.28h35.65l-35.65-35.66v-24.38h132l46.23,46Zm-117.3-28.29H882l-63.94-63.94v38.64Zm81.65-7.36v-56.58l-25.3-25.07H843.39Z" transform="translate(-568.55 -880.23)"/></svg>