<svg width="13" height="13" viewBox="0 0 13 13" fill="none" xmlns="http://www.w3.org/2000/svg">
  <path d="M6.50031 7.98615C6.43844 7.98619 6.37717 7.97405 6.32 7.95039C6.26283 7.92674 6.21089 7.89205 6.16714 7.8483C6.1234 7.80455 6.0887 7.75261 6.06505 7.69544C6.0414 7.63827 6.02925 7.577 6.0293 7.51513V0.471014C6.0293 0.346094 6.07892 0.226289 6.16725 0.137957C6.25559 0.0496246 6.37539 0 6.50031 0C6.62523 0 6.74504 0.0496246 6.83337 0.137957C6.9217 0.226289 6.97133 0.346094 6.97133 0.471014V7.51513C6.97133 7.64005 6.9217 7.75986 6.83337 7.84819C6.74504 7.93652 6.62523 7.98615 6.50031 7.98615Z" fill="#65F78A"/>
  <path d="M6.49992 8.19796C6.34162 8.19821 6.18483 8.16718 6.03856 8.10665C5.89228 8.04612 5.75941 7.95729 5.64757 7.84526L3.10372 5.3014C3.01542 5.21311 2.96582 5.09336 2.96582 4.96849C2.96582 4.84362 3.01542 4.72387 3.10372 4.63558C3.19201 4.54728 3.31176 4.49768 3.43663 4.49768C3.5615 4.49768 3.68125 4.54728 3.76954 4.63558L6.3134 7.17943C6.33789 7.20393 6.36697 7.22336 6.39897 7.23662C6.43098 7.24988 6.46528 7.2567 6.49992 7.2567C6.53456 7.2567 6.56886 7.24988 6.60087 7.23662C6.63287 7.22336 6.66195 7.20393 6.68644 7.17943L9.2303 4.63558C9.31911 4.54975 9.43807 4.50224 9.56157 4.50328C9.68507 4.50432 9.80322 4.55382 9.89058 4.64113C9.97793 4.72843 10.0275 4.84656 10.0286 4.97005C10.0297 5.09355 9.98227 5.21255 9.8965 5.3014L7.35227 7.84526C7.24041 7.95726 7.10753 8.04607 6.96126 8.10659C6.81499 8.16712 6.65822 8.19817 6.49992 8.19796Z" fill="#65F78A"/>
  <path d="M11.7512 12.4823H1.24875C0.917686 12.4819 0.600292 12.3502 0.366192 12.1161C0.132092 11.882 0.000398877 11.5646 0 11.2336V7.94099C0 7.81606 0.0496246 7.69626 0.137957 7.60793C0.226289 7.5196 0.346094 7.46997 0.471014 7.46997C0.595935 7.46997 0.71574 7.5196 0.804072 7.60793C0.892404 7.69626 0.942029 7.81606 0.942029 7.94099V11.2336C0.942129 11.3149 0.974476 11.3928 1.03198 11.4503C1.08948 11.5078 1.16744 11.5402 1.24875 11.5403H11.7512C11.8326 11.5402 11.9105 11.5078 11.968 11.4503C12.0255 11.3928 12.0579 11.3149 12.058 11.2336V7.94099C12.058 7.81606 12.1076 7.69626 12.1959 7.60793C12.2843 7.5196 12.4041 7.46997 12.529 7.46997C12.6539 7.46997 12.7737 7.5196 12.862 7.60793C12.9504 7.69626 13 7.81606 13 7.94099V11.2336C12.9996 11.5646 12.8679 11.882 12.6338 12.1161C12.3997 12.3502 12.0823 12.4819 11.7512 12.4823Z" fill="#65F78A"/>
</svg>
