<svg width="66" height="58" viewBox="0 0 66 58" fill="none" xmlns="http://www.w3.org/2000/svg">
    <path d="M60.7642 5.67605C57.3477 2.01586 52.6597 0 47.5629 0C43.7531 0 40.2641 1.18972 37.1925 3.53585C35.6426 4.7201 34.2382 6.16895 33 7.86003C31.7623 6.16945 30.3574 4.7201 28.807 3.53585C25.7359 1.18972 22.2469 0 18.4371 0C13.3403 0 8.65182 2.01586 5.23531 5.67605C1.85957 9.29347 0 14.2354 0 19.5921C0 25.1055 2.08012 30.1524 6.54602 35.4753C10.5411 40.2367 16.283 45.0702 22.9322 50.6672C25.2027 52.5786 27.7763 54.7452 30.4486 57.053C31.1545 57.6638 32.0604 58 33 58C33.9391 58 34.8455 57.6638 35.5504 57.054C38.2227 54.7457 40.7978 52.5781 43.0693 50.6657C49.7175 45.0697 55.4594 40.2367 59.4545 35.4748C63.9204 30.1524 66 25.1055 66 19.5916C66 14.2354 64.1404 9.29347 60.7642 5.67605Z" fill="#FFD130"/>
</svg>
