<svg width="30" height="30" viewBox="0 0 43 43" fill="none" xmlns="http://www.w3.org/2000/svg">
  <rect width="43" height="43" rx="8.64803" fill="#65F78A"/>
  <path d="M21.3461 17C18.951 17 17 18.951 17 21.3461C17 23.7412 18.951 25.696 21.3461 25.696C22.3691 25.696 23.31 25.3375 24.0536 24.7422L25.8639 26.5516C25.9553 26.6392 26.0773 26.6875 26.2038 26.6862C26.3304 26.6849 26.4514 26.6341 26.5409 26.5447C26.6305 26.4553 26.6814 26.3344 26.6829 26.2078C26.6844 26.0813 26.6362 25.9592 26.5488 25.8677L24.7385 24.0574C25.3342 23.3127 25.6932 22.3703 25.6932 21.3461C25.6932 18.951 23.7412 17 21.3461 17ZM21.3461 17.966C23.2191 17.966 24.7262 19.4731 24.7262 21.3461C24.7262 23.2191 23.2191 24.73 21.3461 24.73C19.4731 24.73 17.966 23.2191 17.966 21.3461C17.966 19.4731 19.4731 17.966 21.3461 17.966Z" fill="#090909"/>
</svg>
