<svg width="172" height="50" viewBox="0 0 172 50" fill="none" xmlns="http://www.w3.org/2000/svg">
<g id="Layer_1" clip-path="url(#clip0_668_347)">
<path id="Vector" d="M172 42.3294L163.04 33.2892V11.7259L152.164 0.807129H121.843V9.17406L113.256 0.807129H96.9726V6.20099L91.8085 0.807129H28.4899V25.9362H23.2038L12.7097 15.348V0.807129H0V27.4096L17.9498 45.5181H91.9003V26.0571L96.9726 31.2393V45.5181H109.682V21.927L111.678 23.8681V45.5181H124.388V37.1633L132.668 45.5181H150.496L154.034 49.0878H172V42.3294Z" fill="black"/>
<g id="Group">
<path id="Vector_2" d="M9.91681 16.515L22.0471 28.754H31.2827L38.4047 35.9398H19.1044L2.79285 19.4821V3.625H9.91481V16.513L9.91681 16.515ZM38.4067 28.754H31.2847V3.625H38.4067V28.754Z" fill="white"/>
<path id="Vector_3" d="M53.6235 14.2434H68.9243L78.1139 23.5153V35.9397H42.4102V10.6273H49.5321V28.756H70.9919V26.4844L65.9376 21.4311H53.6235V14.2454V14.2434ZM42.5041 3.44153H78.1159V10.6273H49.626L42.5041 3.44153Z" fill="white"/>
<path id="Vector_4" d="M112.128 3.625L121.593 12.8506V35.9398H114.471V15.9103L109.233 10.8108H106.889V30.5621L96.4592 19.992L89.1075 12.3427V35.9418H81.9855V3.625H90.6238L99.7675 13.1751V3.625H112.128ZM106.889 35.9398H99.7675V30.7939H106.889V35.9398Z" fill="white"/>
<path id="Vector_5" d="M160.247 34.4563L165.256 39.5095H155.193L151.655 35.9398H133.827L124.637 26.6678V15.7269H131.759L124.637 8.54115V3.625H151.014L160.249 12.897V34.4563H160.247ZM136.812 28.754H144.531L131.757 15.866V23.6544L136.812 28.754ZM153.125 27.2705V15.866L148.071 10.8128H136.814L153.127 27.2705H153.125Z" fill="white"/>
</g>
</g>
<defs>
<clipPath id="clip0_668_347">
<rect width="172" height="48.2807" fill="white" transform="translate(0 0.807129)"/>
</clipPath>
</defs>
</svg>
